<svg width="180" height="180" viewBox="0 0 180 180" fill="none" xmlns="http://www.w3.org/2000/svg">
  <!-- Background with gradient -->
  <defs>
    <linearGradient id="bgGradient" x1="0%" y1="0%" x2="100%" y2="100%">
      <stop offset="0%" style="stop-color:#2196F3;stop-opacity:1" />
      <stop offset="100%" style="stop-color:#1976D2;stop-opacity:1" />
    </linearGradient>
    <linearGradient id="ambulanceGradient" x1="0%" y1="0%" x2="100%" y2="100%">
      <stop offset="0%" style="stop-color:#FFFFFF;stop-opacity:1" />
      <stop offset="100%" style="stop-color:#F5F5F5;stop-opacity:1" />
    </linearGradient>
    <filter id="shadow" x="-50%" y="-50%" width="200%" height="200%">
      <feDropShadow dx="2" dy="3" stdDeviation="2" flood-color="#000000" flood-opacity="0.3"/>
    </filter>
  </defs>
  
  <!-- Rounded background (iOS style) -->
  <rect width="180" height="180" rx="30" fill="url(#bgGradient)"/>
  
  <!-- Ambulance body -->
  <g filter="url(#shadow)">
    <!-- Main ambulance body -->
    <rect x="30" y="60" width="120" height="52" rx="6" fill="url(#ambulanceGradient)" stroke="#E0E0E0" stroke-width="1"/>
    
    <!-- Ambulance front -->
    <rect x="135" y="68" width="15" height="36" rx="3" fill="url(#ambulanceGradient)" stroke="#E0E0E0" stroke-width="1"/>
    
    <!-- Wheels -->
    <circle cx="52" cy="125" r="10" fill="#424242"/>
    <circle cx="52" cy="125" r="7" fill="#616161"/>
    <circle cx="128" cy="125" r="10" fill="#424242"/>
    <circle cx="128" cy="125" r="7" fill="#616161"/>
    
    <!-- Windows -->
    <rect x="38" y="68" width="18" height="14" rx="2" fill="#64B5F6" opacity="0.8"/>
    <rect x="64" y="68" width="22" height="14" rx="2" fill="#64B5F6" opacity="0.8"/>
    <rect x="94" y="68" width="22" height="14" rx="2" fill="#64B5F6" opacity="0.8"/>
    <rect x="124" y="68" width="18" height="14" rx="2" fill="#64B5F6" opacity="0.8"/>
    
    <!-- Emergency lights -->
    <rect x="34" y="56" width="6" height="3" rx="1.5" fill="#FF5722"/>
    <rect x="44" y="56" width="6" height="3" rx="1.5" fill="#2196F3"/>
    <rect x="130" y="56" width="6" height="3" rx="1.5" fill="#FF5722"/>
    <rect x="140" y="56" width="6" height="3" rx="1.5" fill="#2196F3"/>
  </g>
  
  <!-- Red cross symbol -->
  <g transform="translate(90,86)">
    <!-- Cross background circle -->
    <circle cx="0" cy="0" r="18" fill="#F44336"/>
    <circle cx="0" cy="0" r="16" fill="#FFFFFF"/>
    
    <!-- Cross lines -->
    <rect x="-10" y="-2.5" width="20" height="5" rx="2.5" fill="#F44336"/>
    <rect x="-2.5" y="-10" width="5" height="20" rx="2.5" fill="#F44336"/>
  </g>
  
  <!-- Subtle highlights -->
  <rect x="30" y="60" width="120" height="3" rx="1.5" fill="#FFFFFF" opacity="0.3"/>
  <rect x="30" y="60" width="3" height="52" rx="1.5" fill="#FFFFFF" opacity="0.2"/>
</svg> 